<svg xmlns="http://www.w3.org/2000/svg" width="400" height="200" viewBox="0 0 400 200" role="img" aria-label="Босс"><title>Босс — Скоростной силуэт и красная окраска</title><g stroke-linejoin="round" stroke-linecap="round"><path d="M184 98 116 64 129 60 254 103Z" fill="#934d48" stroke="#173244" stroke-width="3.5" /><path d="M64 109 60 38 85 36 136 103Z" fill="#d9745e" stroke="#173244" stroke-width="3.5" /><path d="M65 43 87 44 112 76 85 77Z" fill="#f2d083" stroke="none" stroke-width="3.5" /><path d="M76 107 22 135 34 143 116 113Z" fill="#d9745e" stroke="#173244" stroke-width="3.5" /><path d="M42 101h16v21H42Z" fill="#364b57" stroke="#173244" stroke-width="3.5" /><defs><clipPath id="hull"><path d="M48 104 112 96Q159 87 222 93L306 101 358 103 365 111 364 124 329 129 235 128 111 119 48 117Z"/></clipPath></defs><path d="M48 104 112 96Q159 87 222 93L306 101 358 103 365 111 364 124 329 129 235 128 111 119 48 117Z" fill="#d9745e" stroke="#173244" stroke-width="3.5" /><g clip-path="url(#hull)"><path d="M24 110Q169 110 269 118L397 118V157H24Z" fill="#934d48" stroke="none" stroke-width="3.5" /><path d="M91 98Q185 84 304 103" fill="none" stroke="#f2b5a3" stroke-width="4" /></g><path d="M48 104 112 96Q159 87 222 93L306 101 358 103 365 111 364 124 329 129 235 128 111 119 48 117Z" fill="none" stroke="#173244" stroke-width="3.5" /><path d="M201 90 206 80Q216 65 235 66L269 94Z" fill="#8dccdf" stroke="#173244" stroke-width="3.5" /><path d="M238 68 263 91 244 90 230 67Z" fill="#d6f3f5" stroke="none" stroke-width="3.5" /><path d="M230 67 244 91" fill="none" stroke="#173244" stroke-width="3" /><path d="M211 79 225 72" fill="none" stroke="#effbfb" stroke-width="3" /><path d="M274 111 162 179Q156 186 146 181L117 171 162 114Z" fill="#d9745e" stroke="#173244" stroke-width="3.5" /><path d="M120 167 150 174 161 178 146 181 117 171Z" fill="#934d48" stroke="none" stroke-width="3.5" /><path d="M150 163 243 118" fill="none" stroke="#f2b5a3" stroke-width="2.5" /><path d="M175 145 158 157 137 149 150 137Z" fill="#f2d083" stroke="none" stroke-width="3.5" /><circle cx="148" cy="105" r="9" fill="#f2d083" stroke="#173244" stroke-width="2"/><circle cx="148" cy="105" r="4" fill="#173244"/><path d="M280 127 298 145 277 145 262 127Z" fill="#934d48" stroke="#173244" stroke-width="3.5" /><path d="M332 103h15v28h-15Z" fill="#f2d083" stroke="none" stroke-width="3.5" /><ellipse cx="362" cy="115" rx="6" ry="13" fill="#cbd7df" stroke="#173244" stroke-width="3"/><path d="M360 104 388 115 360 125Z" fill="#354b59" stroke="#173244" stroke-width="3.5" /><path d="M279 115h27m-26 5h24" fill="none" stroke="#173244" stroke-width="2.5" /></g></svg>