<svg xmlns="http://www.w3.org/2000/svg" width="400" height="200" viewBox="0 0 400 200" role="img" aria-label="Сокол"><title>Сокол — Поршневой · силуэт P-51 Mustang</title><g stroke-linejoin="round" stroke-linecap="round"><path d="M184 95 159 62Q157 58 164 57L194 58 247 99Z" fill="#4b94bf" stroke="#173244" stroke-width="3.5" /><path d="M70 103 66 44Q66 35 77 37L122 99Z" fill="#4b94bf" stroke="#173244" stroke-width="3.5" /><path d="M73 40 79 42 111 93 99 96Z" fill="#f2d178" stroke="none" stroke-width="3.5" /><path d="M65 99 23 119Q17 123 24 127L57 130 111 107Z" fill="#2a628a" stroke="#173244" stroke-width="3.5" /><path d="M28 122 75 106" fill="none" stroke="#a5cde3" stroke-width="2.5" /><defs><clipPath id="hull"><path d="M54 102 106 94Q164 79 236 86L302 94 352 99Q363 102 364 110L358 126 301 129 231 120 112 116 55 110Z"/></clipPath></defs><path d="M54 102 106 94Q164 79 236 86L302 94 352 99Q363 102 364 110L358 126 301 129 231 120 112 116 55 110Z" fill="#4b94bf" stroke="#173244" stroke-width="3.5" /><g clip-path="url(#hull)"><path d="M24 110Q169 110 269 118L397 118V157H24Z" fill="#2a628a" stroke="none" stroke-width="3.5" /><path d="M130 82h12v41h-12ZM155 82h12v41h-12Z" fill="#e5e9df" stroke="none" stroke-width="3.5" /><path d="M91 98Q185 84 304 103" fill="none" stroke="#a5cde3" stroke-width="4" /></g><path d="M54 102 106 94Q164 79 236 86L302 94 352 99Q363 102 364 110L358 126 301 129 231 120 112 116 55 110Z" fill="none" stroke="#173244" stroke-width="3.5" /><path d="M243 119 281 129 259 143 230 137Z" fill="#2a628a" stroke="#173244" stroke-width="3.5" /><path d="M195 89Q198 65 215 61Q237 57 257 91Z" fill="#91ccdf" stroke="#173244" stroke-width="3.5" /><path d="M237 67 252 89 234 88 229 64Z" fill="#d9f5f4" stroke="none" stroke-width="3.5" /><path d="M229 63 234 90" fill="none" stroke="#173244" stroke-width="3" /><path d="M203 71Q213 66 224 67" fill="none" stroke="#effbff" stroke-width="3" /><path d="M326 96 355 100 359 117 329 118Z" fill="#f2d178" stroke="#173244" stroke-width="3.5" /><path d="M304 100h5m-5 6h5m-5 6h5m-5 6h5" fill="none" stroke="#173244" stroke-width="3" /><circle cx="185" cy="102" r="9" fill="#eeeade" stroke="#173244" stroke-width="2"/><circle cx="185" cy="102" r="4" fill="#173244"/><path d="M249 113 185 171Q181 176 176 174L132 168Q125 167 131 160L194 114Z" fill="#4b94bf" stroke="#173244" stroke-width="3.5" /><path d="M133 160 178 166 183 173 133 167Z" fill="#2a628a" stroke="none" stroke-width="3.5" /><path d="M145 158 186 165" fill="none" stroke="#a5cde3" stroke-width="2.5" /><path d="M199 149 190 157 148 151 158 142Z" fill="#e5e9df" stroke="none" stroke-width="3.5" /><path d="M337 124 354 130 350 143 339 138Z" fill="#4b94bf" stroke="#173244" stroke-width="3.5" /><ellipse cx="373" cy="108" rx="9" ry="39" fill="#c1dce9" opacity=".18"/><path d="M372 106 367 73Q367 64 373 66L378 103ZM373 110 379 144Q378 151 373 148L368 113Z" fill="#40556b" stroke="#173244" stroke-width="2.5" /><path d="M371 107 357 88 361 87 375 106ZM375 110 387 129 382 130 371 111Z" fill="#839aab" stroke="#173244" stroke-width="2" /><path d="M359 98Q375 99 381 108Q375 118 359 118Z" fill="#f2d178" stroke="#173244" stroke-width="3.5" /></g></svg>